{"title":"Hitman.Agent.47.2015.BRRip.480p.x264.AAC-VYTO [P2PDL]","uid":12926070,"size":373824299,"categoryP":"video","categoryS":"movies","magnet":"?xt=urn:btih:41793e3f817d3b88cb03952c970f74c7f93f14ce&amp;dn=Hitman.Agent.47.2015.BRRip.480p.x264.AAC-VYTO+%5BP2PDL%5D&amp;tr=udp%3A%2F%2Ftracker.leechers-paradise.org%3A6969&amp;tr=udp%3A%2F%2Fzer0day.ch%3A1337&amp;tr=udp%3A%2F%2Fopen.demonii.com%3A1337&amp;tr=udp%3A%2F%2Ftracker.coppersurfer.tk%3A6969&amp;tr=udp%3A%2F%2Fexodus.desync.com%3A6969","seeders":1,"leechers":3,"uploader":"VYTOP2PDL","files":7,"time":1449470402,"description":"____    ____ ____    ____ .___________.  ______   \r\n     /   /      /   / |           | /  __    \r\n    /   /      /   /  `---|  |----`|  |  |  | \r\n        /     _    _/       |  |     |  |  |  | \r\n       /        |  |         |  |     |  `--'  | \r\n    __/         |__|         |__|      ______/  \r\n                                                  \r\nPresenting Small Encodes with quality for years!\r\n                                                                                                   \r\n                                                                                                   \r\n\r\nHitman.Agent.47.2015.BRRip.480p.x264.AAC-VYTO\r\n\r\n\r\nGenre: Action, Crime, Thriller   \nhttp://www.imdb.com/title/tt2679042/\r\n\r\n\r\nGeneral\r\nFormat                         : MPEG-4\r\nFile size                      : 351 MiB\r\nDuration                       : 1h 36mn\r\nOverall bit rate               : 510 Kbps\r\n\r\nVideo\r\nFormat                         : AVC\r\nBit rate                       : 475 Kbps\r\nWidth                          : 720 pixels\r\nHeight                         : 304 pixels\r\nDisplay aspect ratio           : 2.35:1\r\nFrame rate mode                : Constant\r\nFrame rate                     : 23.976 fps\r\nBit depth                      : 8 bits\r\nStream size                    : 327 MiB (93%)\r\nWriting library                : x264\r\n\r\nAudio\r\nFormat                         : AAC\r\nBit rate mode                  : Variable\r\nBit rate                       : 32.0 Kbps\r\nChannel(s)                     : 2 channels\r\nChannel positions              : Front: L R \r\nSampling rate                  : 48.0 KHz \r\nStream size                    : 22.0 MiB (6%)\r\nLanguage                       : English\r\n\r\nSubtitle                       : Yes (English)\r\n \nhttp://ititli.com/CX \nhttp://ititli.com/Cq \nhttp://ititli.com/Cr \nhttp://ititli.com/C1 \nhttp://ititli.com/CT \nhttp://ititli.com/CW \nhttp://ititli.com/Cg \nhttp://ititli.com/Cn\r\n\r\n----------------------------------------------------------------------------------------------------\r\n\r\n\r\nEncoder Notes: Looking For Early Access To Anything You Can Provide WEBDL, DVDScr, DVDR, BluRay,\r\nDirect Audio, Music Releases and Seedboxes. If You Got anything to offer please contact us.\r\n\r\nSupport us by donating BC - 1FgwdzPsd1y25Gea8wP1qni35uGCtmkRCD\r\n\r\nSend some love!\r\nFind us and join us!","torrent":{"xt":"urn:btih:41793e3f817d3b88cb03952c970f74c7f93f14ce","amp;dn":"Hitman.Agent.47.2015.BRRip.480p.x264.AAC-VYTO+%5BP2PDL%5D","amp;tr":["udp%3A%2F%2Ftracker.leechers-paradise.org%3A6969","udp%3A%2F%2Fzer0day.ch%3A1337","udp%3A%2F%2Fopen.demonii.com%3A1337","udp%3A%2F%2Ftracker.coppersurfer.tk%3A6969","udp%3A%2F%2Fexodus.desync.com%3A6969"],"infoHash":"41793e3f817d3b88cb03952c970f74c7f93f14ce","infoHashBuffer":{"type":"Buffer","data":[65,121,62,63,129,125,59,136,203,3,149,44,151,15,116,199,249,63,20,206]},"announce":[],"urlList":[]}}